<svg xmlns="http://www.w3.org/2000/svg" width="258" height="46" viewBox="0 0 258 46">
  <metadata><?xpacket begin="﻿" id="W5M0MpCehiHzreSzNTczkc9d"?>
<x:xmpmeta xmlns:x="adobe:ns:meta/" x:xmptk="Adobe XMP Core 5.6-c140 79.160451, 2017/05/06-01:08:21        ">
   <rdf:RDF xmlns:rdf="http://www.w3.org/1999/02/22-rdf-syntax-ns#">
      <rdf:Description rdf:about=""/>
   </rdf:RDF>
</x:xmpmeta>
                                                                                                    
                                                                                                    
                                                                                                    
                                                                                                    
                                                                                                    
                                                                                                    
                                                                                                    
                                                                                                    
                                                                                                    
                                                                                                    
                                                                                                    
                                                                                                    
                                                                                                    
                                                                                                    
                                                                                                    
                                                                                                    
                                                                                                    
                                                                                                    
                                                                                                    
                                                                                                    
                           
<?xpacket end="w"?></metadata>
<defs>
    <style>
      .cls-1 {
        fill-rule: evenodd;
      }
    </style>
  </defs>
  <path id="conversion.js" class="cls-1" d="M2.384,31.594q2.351,2.5,6.96,2.5a10.873,10.873,0,0,0,4.992-1.032q2.016-1.032,2.016-2.136a1.6,1.6,0,0,0-.408-1.056,1.3,1.3,0,0,0-1.032-.48,1.825,1.825,0,0,0-.936.444,7.726,7.726,0,0,1-1.728.888,7.555,7.555,0,0,1-2.76.444A6.371,6.371,0,0,1,4.76,29.539a6.228,6.228,0,0,1-1.608-4.583V19.848A6.163,6.163,0,0,1,4.76,15.313,6.306,6.306,0,0,1,9.44,13.69a7.079,7.079,0,0,1,2.64.444,8.7,8.7,0,0,1,1.7.864,1.879,1.879,0,0,0,.888.42,1.254,1.254,0,0,0,.96-0.5,1.579,1.579,0,0,0,.432-1.032q0-1.055-1.944-2.088A10.2,10.2,0,0,0,9.3,10.762q-4.561,0-6.912,2.52A9.216,9.216,0,0,0,.032,19.834V24.97A9.262,9.262,0,0,0,2.384,31.594Zm22.176-.264A8.659,8.659,0,0,0,30.9,34.09,8.791,8.791,0,0,0,37.3,31.33a8.74,8.74,0,0,0,2.76-6.36V19.738A8.494,8.494,0,0,0,37.329,13.4a8.964,8.964,0,0,0-6.432-2.64,8.759,8.759,0,0,0-6.384,2.664,8.588,8.588,0,0,0-2.688,6.312V24.97A8.775,8.775,0,0,0,24.561,31.33Zm0.384-11.577a5.972,5.972,0,0,1,1.752-4.2,5.566,5.566,0,0,1,4.2-1.862,5.717,5.717,0,0,1,4.248,1.862,5.894,5.894,0,0,1,1.8,4.2v5.2a6.124,6.124,0,0,1-1.776,4.321A5.661,5.661,0,0,1,30.9,31.162a5.534,5.534,0,0,1-4.2-1.886,6.164,6.164,0,0,1-1.752-4.321v-5.2ZM48.032,33.37a1.6,1.6,0,0,0,1.1.384,1.72,1.72,0,0,0,1.1-.383,1.1,1.1,0,0,0,.48-0.862V19.772a5.86,5.86,0,0,1,1.728-4.405,5.554,5.554,0,0,1,3.984-1.676,5.634,5.634,0,0,1,4.224,1.867,5.963,5.963,0,0,1,1.776,4.214V32.509a1.053,1.053,0,0,0,.48.91,1.8,1.8,0,0,0,1.056.335,1.877,1.877,0,0,0,1.1-.336,1.057,1.057,0,0,0,.48-0.912V19.738A8.809,8.809,0,0,0,63.008,13.4a8.066,8.066,0,0,0-6-2.64,7.173,7.173,0,0,0-3.936,1.069,6.939,6.939,0,0,0-2.5,2.625V12.218a1.023,1.023,0,0,0-.432-0.827,1.584,1.584,0,0,0-1.008-.341,1.84,1.84,0,0,0-1.1.312,0.985,0.985,0,0,0-.432.84v20.3A1.136,1.136,0,0,0,48.032,33.37Zm23.28-20.256L79.04,33.37a1.734,1.734,0,0,0,2.88,0l7.728-20.256a1.708,1.708,0,0,0,.192-0.768,1.194,1.194,0,0,0-.672-0.96,2.346,2.346,0,0,0-1.248-.432,1.221,1.221,0,0,0-1.1.912L80.48,28.954l-6.336-17.28a1.121,1.121,0,0,0-1.152-.72,2.139,2.139,0,0,0-1.272.432,1.234,1.234,0,0,0-.6,1.008,1.268,1.268,0,0,0,.192.72h0ZM98,31.57a10.885,10.885,0,0,0,7.44,2.52,11,11,0,0,0,5.136-1.08q2.064-1.08,2.064-2.088a1.58,1.58,0,0,0-.408-0.984,1.187,1.187,0,0,0-.936-0.5,1.972,1.972,0,0,0-1.032.48,8.3,8.3,0,0,1-1.872.96,7.789,7.789,0,0,1-2.856.48,7.921,7.921,0,0,1-5.256-1.7,5.611,5.611,0,0,1-2.04-4.536V23.338h10.848a10.209,10.209,0,0,0,1.584-.1,4.789,4.789,0,0,0,1.272-.431,2.005,2.005,0,0,0,1.008-1.149,6.144,6.144,0,0,0,.312-2.155,8.209,8.209,0,0,0-2.664-6.247,9.277,9.277,0,0,0-12.792.117,8.38,8.38,0,0,0-2.688,6.216V24.97A8.349,8.349,0,0,0,98,31.57Zm0.24-12.349a5.541,5.541,0,0,1,1.752-4.1,5.844,5.844,0,0,1,4.248-1.718,5.646,5.646,0,0,1,4.3,1.813,5.944,5.944,0,0,1,1.7,4.2,1.466,1.466,0,0,1-.48,1.312,3.961,3.961,0,0,1-1.92.31h-9.6V19.221ZM120.823,33.37a1.621,1.621,0,0,0,1.08.384,1.692,1.692,0,0,0,1.128-.383,1.112,1.112,0,0,0,.456-0.862V20.681a6.872,6.872,0,0,1,1.92-5.052,6.042,6.042,0,0,1,4.416-1.94h1.68a1.131,1.131,0,0,0,.864-0.439,1.56,1.56,0,0,0,0-2.05,1.132,1.132,0,0,0-.864-0.439h-1.68a6.859,6.859,0,0,0-3.888,1.117,7.6,7.6,0,0,0-2.544,2.72V12.217a1.021,1.021,0,0,0-.432-0.827,1.656,1.656,0,0,0-1.056-.341,1.748,1.748,0,0,0-1.1.336,1,1,0,0,0-.432.816v20.3A1.116,1.116,0,0,0,120.823,33.37Zm18.384-.408a11.557,11.557,0,0,0,5.352,1.128,8.8,8.8,0,0,0,5.688-1.656,5.527,5.527,0,0,0,2.04-4.536,6.448,6.448,0,0,0-1.2-4.039,5.75,5.75,0,0,0-2.976-2.087L144.6,20.733a10.642,10.642,0,0,1-2.976-1.359,2.649,2.649,0,0,1-1.244-2.3,3.415,3.415,0,0,1,1.2-2.539,5.08,5.08,0,0,1,3.6-1.129,8.635,8.635,0,0,1,3.312.672,14.283,14.283,0,0,0,1.776.672,1.1,1.1,0,0,0,.912-0.576,1.947,1.947,0,0,0,.384-1.056q0-.864-2.04-1.608a12.737,12.737,0,0,0-4.392-.744q-3.792,0-5.688,1.944a6.346,6.346,0,0,0-1.9,4.584,4.982,4.982,0,0,0,1.224,3.528,6.584,6.584,0,0,0,2.975,1.851l3.48,1.056a8.224,8.224,0,0,1,2.953,1.556,3.429,3.429,0,0,1,1.224,2.761,3,3,0,0,1-1.2,2.448,5.96,5.96,0,0,1-3.744.96,8.133,8.133,0,0,1-3.216-.576,9.825,9.825,0,0,1-2.064-1.128,2.191,2.191,0,0,0-1.056-.552,0.946,0.946,0,0,0-.768.48,1.668,1.668,0,0,0-.336.96Q137.023,31.834,139.207,32.962ZM160.879,45.33a1.992,1.992,0,0,0,1.464-.6,1.939,1.939,0,0,0,.6-1.416,1.863,1.863,0,0,0-.6-1.392,2.037,2.037,0,0,0-1.464-.576,2.177,2.177,0,0,0-1.536.576,1.823,1.823,0,0,0-.624,1.392,1.9,1.9,0,0,0,.624,1.416,2.126,2.126,0,0,0,1.536.6h0ZM159.8,33.37a1.617,1.617,0,0,0,1.08.384,1.719,1.719,0,0,0,1.1-.384,1.1,1.1,0,0,0,.48-0.864V12.2a0.993,0.993,0,0,0-.456-0.816,1.857,1.857,0,0,0-1.128-.336,1.746,1.746,0,0,0-1.1.336,1,1,0,0,0-.432.816v20.3A1.113,1.113,0,0,0,159.8,33.37Zm12.935-2.04a8.659,8.659,0,0,0,6.336,2.76,8.789,8.789,0,0,0,6.408-2.76,8.738,8.738,0,0,0,2.76-6.36V19.738A8.494,8.494,0,0,0,185.5,13.4a8.964,8.964,0,0,0-6.432-2.64,8.76,8.76,0,0,0-6.384,2.664A8.59,8.59,0,0,0,170,19.738V24.97A8.775,8.775,0,0,0,172.734,31.33Zm0.384-11.577a5.974,5.974,0,0,1,1.752-4.2,5.566,5.566,0,0,1,4.2-1.862,5.717,5.717,0,0,1,4.248,1.862,5.894,5.894,0,0,1,1.8,4.2v5.2a6.122,6.122,0,0,1-1.776,4.321,5.66,5.66,0,0,1-4.272,1.886,5.535,5.535,0,0,1-4.2-1.886,6.166,6.166,0,0,1-1.752-4.321v-5.2ZM196.206,33.37a1.6,1.6,0,0,0,1.1.384,1.722,1.722,0,0,0,1.1-.383,1.1,1.1,0,0,0,.48-0.862V19.772a5.86,5.86,0,0,1,1.728-4.405,5.554,5.554,0,0,1,3.984-1.676,5.635,5.635,0,0,1,4.224,1.867,5.965,5.965,0,0,1,1.776,4.214V32.509a1.051,1.051,0,0,0,.48.91,1.8,1.8,0,0,0,1.056.335,1.88,1.88,0,0,0,1.1-.336,1.059,1.059,0,0,0,.48-0.912V19.738a8.812,8.812,0,0,0-2.544-6.336,8.067,8.067,0,0,0-6-2.64,7.17,7.17,0,0,0-3.936,1.069,6.93,6.93,0,0,0-2.5,2.625V12.218a1.023,1.023,0,0,0-.432-0.827,1.584,1.584,0,0,0-1.008-.341,1.839,1.839,0,0,0-1.1.312,0.985,0.985,0,0,0-.432.84v20.3A1.136,1.136,0,0,0,196.206,33.37Zm25.274-.025a1.939,1.939,0,0,0,1.532.7,1.889,1.889,0,0,0,1.462-.722,2.45,2.45,0,0,0,.627-1.652,2.514,2.514,0,0,0-.627-1.7,1.888,1.888,0,0,0-1.462-.723,1.938,1.938,0,0,0-1.532.7,2.55,2.55,0,0,0-.6,1.729A2.477,2.477,0,0,0,221.48,33.345Zm6.693,11.123a1.55,1.55,0,0,0,1.2.421q6.336,0,6.336-9.072V12.2a0.993,0.993,0,0,0-.456-0.816,2.087,2.087,0,0,0-2.232-.025,0.979,0.979,0,0,0-.432.837V35.741a12.375,12.375,0,0,1-.672,4.666,2.716,2.716,0,0,1-2.784,1.555,1.242,1.242,0,0,0-.96.422,1.521,1.521,0,0,0-.384,1.066A1.461,1.461,0,0,0,228.173,44.468ZM234.125,4.33a1.992,1.992,0,0,0,1.464-.6,1.939,1.939,0,0,0,.6-1.416,1.863,1.863,0,0,0-.6-1.392,2.037,2.037,0,0,0-1.464-.576,2.177,2.177,0,0,0-1.536.576,1.823,1.823,0,0,0-.624,1.392,1.9,1.9,0,0,0,.624,1.416,2.126,2.126,0,0,0,1.536.6h0ZM244.9,32.962a11.557,11.557,0,0,0,5.352,1.128,8.792,8.792,0,0,0,5.688-1.656,5.527,5.527,0,0,0,2.04-4.536,6.448,6.448,0,0,0-1.2-4.039,5.756,5.756,0,0,0-2.977-2.087L250.3,20.733a10.616,10.616,0,0,1-2.976-1.359,2.648,2.648,0,0,1-1.245-2.3,3.415,3.415,0,0,1,1.2-2.539,5.084,5.084,0,0,1,3.6-1.129,8.635,8.635,0,0,1,3.312.672,14.351,14.351,0,0,0,1.776.672,1.1,1.1,0,0,0,.912-0.576,1.947,1.947,0,0,0,.384-1.056q0-.864-2.04-1.608a12.728,12.728,0,0,0-4.392-.744q-3.792,0-5.688,1.944a6.35,6.35,0,0,0-1.9,4.584,4.982,4.982,0,0,0,1.224,3.528,6.587,6.587,0,0,0,2.976,1.851l3.48,1.056a8.219,8.219,0,0,1,2.952,1.556,3.429,3.429,0,0,1,1.224,2.761,3,3,0,0,1-1.2,2.448,5.96,5.96,0,0,1-3.744.96,8.136,8.136,0,0,1-3.216-.576,9.825,9.825,0,0,1-2.064-1.128,2.186,2.186,0,0,0-1.056-.552,0.947,0.947,0,0,0-.768.48,1.668,1.668,0,0,0-.336.96Q242.716,31.834,244.9,32.962Z"/>
</svg>
